<svg width="34" height="26" viewBox="0 0 34 26" fill="none" xmlns="http://www.w3.org/2000/svg">
<path d="M18.911 13.2156C18.911 16.6055 17.8564 19.6486 16.1836 21.8296C14.5113 24.0099 12.2502 25.3001 9.80549 25.3001C7.3608 25.3001 5.09965 24.0099 3.4274 21.8296C1.75461 19.6486 0.7 16.6055 0.7 13.2156C0.7 9.82584 1.75461 6.78266 3.4274 4.60166C5.09965 2.42136 7.3608 1.13115 9.80549 1.13115C12.2502 1.13115 14.5113 2.42136 16.1836 4.60166C17.8564 6.78266 18.911 9.82584 18.911 13.2156Z" stroke="black" stroke-width="1.4"/>
<line y1="-0.7" x2="26.4989" y2="-0.7" transform="matrix(0.389747 0.920922 -0.881155 0.472828 21.6721 0.796387)" stroke="black" stroke-width="1.4"/>
<line y1="-0.7" x2="6.80939" y2="-0.7" transform="matrix(0.378946 -0.925419 0.88751 0.460789 19.611 7.0957)" stroke="black" stroke-width="1.4"/>
<ellipse cx="21.9289" cy="0.730543" rx="0.648784" ry="0.730543" fill="black"/>
</svg>
